<?xml version="1.0" encoding="utf-8"?>
<!-- Generator: Adobe Illustrator 16.2.1, SVG Export Plug-In . SVG Version: 6.00 Build 0)  -->
<!DOCTYPE svg PUBLIC "-//W3C//DTD SVG 1.1//EN" "http://www.w3.org/Graphics/SVG/1.1/DTD/svg11.dtd">
<svg version="1.1" id="Layer_1" xmlns="http://www.w3.org/2000/svg" xmlns:xlink="http://www.w3.org/1999/xlink" x="0px" y="0px"
	 width="100px" height="100px" viewBox="0 0 100 100" enable-background="new 0 0 100 100" xml:space="preserve">
<path id="path62" fill="#34AAD2" d="M97.212,50.09c0-25.804-20.91-46.719-46.7-46.719c-25.792,0-46.7,20.916-46.7,46.719
	c0,25.803,20.909,46.719,46.7,46.719C76.302,96.809,97.212,75.893,97.212,50.09"/>
<path id="path66" fill="#DD1F25" d="M59.876,35.128c-2.313,0-4.197,1.885-4.197,4.199c0,2.316,1.884,4.205,4.197,4.205
	c2.323,0,4.201-1.889,4.201-4.205C64.077,37.013,62.199,35.128,59.876,35.128"/>
<path id="path70" fill="#221F1F" d="M46.318,47.367V35.941h-8.397v11.426H24.253c2.332-12.766,13.484-22.451,26.915-22.451
	c13.436,0,24.585,9.685,26.921,22.451H46.318z M87.108,52.317c0-19.86-16.093-35.956-35.94-35.956
	c-19.846,0-35.938,16.096-35.938,35.956c0,1.161,0.064,2.312,0.172,3.45h22.519v20.184h8.397V55.768h9.362v20.184h8.396V55.768
	h22.857C87.039,54.629,87.108,53.479,87.108,52.317"/>
</svg>
